<svg xmlns="http://www.w3.org/2000/svg" viewBox="0 0 100 100" fill="none"
     role="img" aria-label="Victim Application">
  <defs>
    <linearGradient id="lc-g" x1="0" y1="0" x2="100" y2="100" gradientUnits="userSpaceOnUse">
      <stop offset="0%"   stop-color="#00f2fe"/>
      <stop offset="50%"  stop-color="#818cf8"/>
      <stop offset="100%" stop-color="#4facfe"/>
    </linearGradient>
    <linearGradient id="lc-gl" x1="0" y1="0" x2="100" y2="100" gradientUnits="userSpaceOnUse">
      <stop offset="0%"   stop-color="#67e8f9"/>
      <stop offset="100%" stop-color="#c7d2fe"/>
    </linearGradient>
    <radialGradient id="lc-glow" cx="50%" cy="50%" r="50%">
      <stop offset="0%"   stop-color="#00f2fe" stop-opacity="0.22"/>
      <stop offset="100%" stop-color="#00f2fe" stop-opacity="0"/>
    </radialGradient>
  </defs>

  <!-- Background -->
  <rect width="100" height="100" rx="22" fill="#0a0f1d"/>
  <rect width="100" height="100" rx="22" fill="url(#lc-g)" fill-opacity="0.07"/>
  <rect x="1.5" y="1.5" width="97" height="97" rx="21"
        stroke="url(#lc-g)" stroke-width="1.2" stroke-opacity="0.22" fill="none"/>

  <!-- Globe lattice -->
  <circle cx="50" cy="50" r="30" stroke="url(#lc-g)" stroke-width="1.2" stroke-opacity="0.35" fill="none"/>
  <ellipse cx="50" cy="50" rx="30" ry="9"  stroke="url(#lc-g)"  stroke-width="1"   stroke-opacity="0.22" fill="none"/>
  <ellipse cx="50" cy="50" rx="9"  ry="30" stroke="url(#lc-g)"  stroke-width="1"   stroke-opacity="0.22" fill="none"/>
  <ellipse cx="50" cy="38" rx="22" ry="6"  stroke="url(#lc-gl)" stroke-width="0.8" stroke-opacity="0.18" fill="none"/>
  <ellipse cx="50" cy="62" rx="22" ry="6"  stroke="url(#lc-gl)" stroke-width="0.8" stroke-opacity="0.18" fill="none"/>

  <!-- Glow -->
  <circle cx="50" cy="50" r="22" fill="url(#lc-glow)"/>

  <!-- Crosshair -->
  <line x1="50" y1="16" x2="50" y2="23" stroke="url(#lc-g)" stroke-width="1.8" stroke-linecap="round"/>
  <line x1="50" y1="77" x2="50" y2="84" stroke="url(#lc-g)" stroke-width="1.8" stroke-linecap="round"/>
  <line x1="16" y1="50" x2="23" y2="50" stroke="url(#lc-g)" stroke-width="1.8" stroke-linecap="round"/>
  <line x1="77" y1="50" x2="84" y2="50" stroke="url(#lc-g)" stroke-width="1.8" stroke-linecap="round"/>
  <circle cx="50" cy="50" r="10" stroke="url(#lc-g)" stroke-width="1.5" stroke-opacity="0.7" fill="none"/>

  <!-- Dev location nodes -->
  <circle cx="35" cy="34" r="2.6" fill="url(#lc-g)"/>
  <circle cx="63" cy="30" r="2.2" fill="url(#lc-gl)"/>
  <circle cx="30" cy="62" r="2.2" fill="url(#lc-gl)"/>
  <circle cx="64" cy="63" r="2.4" fill="url(#lc-g)"/>
  <g stroke="url(#lc-gl)" stroke-width="0.9" stroke-opacity="0.4" stroke-linecap="round">
    <line x1="35" y1="34" x2="63" y2="30"/>
    <line x1="35" y1="34" x2="30" y2="62"/>
    <line x1="63" y1="30" x2="64" y2="63"/>
    <line x1="30" y1="62" x2="64" y2="63"/>
  </g>

  <!-- Bug X -->
  <g stroke="#f87171" stroke-width="2.2" stroke-linecap="round" opacity="0.9">
    <line x1="45.5" y1="45.5" x2="54.5" y2="54.5"/>
    <line x1="54.5" y1="45.5" x2="45.5" y2="54.5"/>
  </g>

  <!-- Circuit trail -->
  <g stroke="url(#lc-g)" stroke-width="1.3" stroke-linecap="round" opacity="0.72">
    <line x1="84" y1="50" x2="91" y2="50"/>
    <line x1="91" y1="50" x2="91" y2="42"/>
    <circle cx="91" cy="40" r="2.5" fill="url(#lc-g)" stroke="none"/>
    <line x1="91" y1="50" x2="91" y2="58"/>
    <circle cx="91" cy="60" r="2"   fill="url(#lc-gl)" stroke="none"/>
  </g>
</svg>
